<mxfile host="app.diagrams.net" modified="2023-06-09T04:35:18.350Z" agent="Mozilla/5.0 (Macintosh; Intel Mac OS X 10_15_7) AppleWebKit/537.36 (KHTML, like Gecko) Chrome/114.0.0.0 Safari/537.36" version="21.3.2" etag="bt1JwUnoChNDmZR0lBkH" type="github">
  <diagram name="ページ1" id="YHaIocoZJiWx1fqVLiZf">
    <mxGraphModel>
      <root>
        <mxCell id="0" />
        <mxCell id="1" parent="0" />
      </root>
    </mxGraphModel>
  </diagram>
</mxfile>
